<?xml version="1.0" encoding="UTF-8"?>
<svg id="Capa_1" data-name="Capa 1" xmlns="http://www.w3.org/2000/svg" xmlns:xlink="http://www.w3.org/1999/xlink" viewBox="0 0 500 500">
  <defs>
    <style>
      .cls-1 {
        fill: none;
      }

      .cls-2 {
        fill: #1d1d1b;
      }

      .cls-3 {
        fill: #fff;
      }

      .cls-4 {
        clip-path: url(#clippath);
      }
    </style>
    <clipPath id="clippath">
      <rect class="cls-1" x="44.68" y="49.59" width="410.64" height="400.82"/>
    </clipPath>
  </defs>
  <g class="cls-4">
    <path class="cls-2" d="M446.32,250.41c0,110.91-89.91,200.83-200.83,200.83S44.68,361.32,44.68,250.41,134.58,49.58,245.49,49.58s200.83,89.91,200.83,200.83"/>
  </g>
  <path class="cls-3" d="M253.76,326.09c-42.21,0-84.39.06-126.6-.04-15.03-.02-24.74-13.09-20.22-26.98,1.94-6,5.99-10.19,11.85-12.34,37.46-13.83,74.92-27.56,112.38-41.35,3.85-1.43,7.17-.95,8.43,3.2,1.45,4.76-2.27,6.33-5.87,7.67-35.56,13.06-71.13,26.11-106.67,39.19-1.92.7-4.49,1.01-5.5,2.4-1.96,2.77-4.47,6.39-4.03,9.22.45,2.87,3.93,5.58,6.64,7.63,1.34,1.01,3.93.43,5.97.43,82.57.02,165.15.06,247.7-.14,3.51,0,7.96-1.28,10.3-3.62,4.88-4.88,2.21-12.11-5.06-14.82-19.64-7.36-39.34-14.59-59.02-21.81-20.65-7.59-41.26-15.24-61.96-22.68-8.64-3.12-14.28-8.35-14.9-18.01-.66-10.58,3.04-18.63,12.8-23.59,14.39-7.32,17.68-23.32,7.01-33.74-5.71-5.58-12.55-7.42-20.26-5.06-7.67,2.36-12.34,7.61-14.14,15.4-.29,1.18-.48,2.4-.56,3.62-.27,3.89-2.15,6.3-6.2,5.81-4.15-.48-4.96-3.58-4.8-7.21.95-20.75,22.64-35.06,42.36-27.66,12.38,4.63,19.58,13.89,20.61,27.1,1.07,13.75-4.98,24.17-17.1,30.62-5.07,2.69-8.64,5.68-8.77,11.93-.14,5.64,2.5,8.54,7.52,10.36,30.04,10.92,60.05,21.98,90.07,33.01,9.94,3.64,19.89,7.28,29.81,10.96,12.03,4.49,17.57,12.92,15.59,23.57-2.05,11.04-9.86,16.93-22.62,16.93-41.59.02-83.17,0-124.76,0"/>
</svg>