<?xml version="1.0" encoding="UTF-8"?>
<svg id="Capa_1" data-name="Capa 1" xmlns="http://www.w3.org/2000/svg" xmlns:xlink="http://www.w3.org/1999/xlink" viewBox="0 0 500 500">
  <defs>
    <style>
      .cls-1 {
        fill: none;
      }

      .cls-2 {
        fill: #1d1d1b;
      }

      .cls-3 {
        fill: #fff;
      }

      .cls-4 {
        clip-path: url(#clippath);
      }
    </style>
    <clipPath id="clippath">
      <rect class="cls-1" x="44.68" y="49.59" width="410.64" height="400.82"/>
    </clipPath>
  </defs>
  <g class="cls-4">
    <path class="cls-2" d="M446.32,250.41c0,110.91-89.91,200.83-200.83,200.83S44.68,361.32,44.68,250.41,134.58,49.58,245.49,49.58s200.83,89.91,200.83,200.83"/>
  </g>
  <g>
    <path class="cls-3" d="M202.57,81.46s-5.85.48-7.21,11.9c0,0-3.26-1.36-3.26,7.34,0,0-3.88-.68-1.36,9.52,0,0-2.99-.82-2.45,8.98,0,0-3.26-.82-2.72,8.98,0,0-2.18-.27-1.9,8.16,0,0-3.54-2.99-3.54,10.06,0,0-2.72-.82-2.18,10.06,0,0-2.72.54-2.18,9.52,0,0-3.26-.54-2.45,9.79,0,0-2.45,0-2.45,12.51,0,0-4.08.54-3.26,11.7,0,0-10.61,24.49,23.66,58.76l-6.37,147.08c-.21,4.75,2.41,9.22,6.72,11.24.08.04.17.08.25.12,3.4,1.54,7.11,1.81,10.47.97,5.88-1.47,9.85-7,10.01-13.06V88.46s-.41-7.89-9.79-7ZM200.84,403.62c0,.81-.65,1.46-1.46,1.46s-1.46-.65-1.46-1.46v-14.75c0-.81.65-1.46,1.46-1.46s1.46.65,1.46,1.46v14.75Z"/>
    <path class="cls-3" d="M333.93,166.32l-.11-67.72c0-5.37-4.18-9.96-9.55-10.13-.08,0-.17,0-.25,0s-.17,0-.25,0c-5.49,0-9.82,4.7-9.8,10.18l.24,70.99c.03,8.61-4.59,16.68-12.22,20.65-1.54.8-2.59,1.13-2.59,1.13v-93.32s0-.04,0-.06c-.01-3.57-2.08-6.89-5.24-8.54-1.9-.99-4.44-1.65-7.5-.94-4,.93-7.24,5.26-7.26,9.37l-.54,92.8c-4.28.24-7.55-2.68-9.84-5.97-2.82-4.04-4.16-8.92-4.18-13.85l-.24-71.57c-.02-5-3.65-9.5-8.62-9.97-.36-.03-.72-.05-1.08-.04-.08,0-.17,0-.25,0-5.96.23-10.56,5.35-10.56,11.31v77.36c2.04,30.7,34.82,36.72,34.82,36.72l-3.63,189.26c-.04,2.2.3,4.43,1.31,6.39,1.44,2.79,3.68,4.63,6.13,5.66,3.52,1.49,8.5,1.24,12.15.12,7.6-2.34,7.62-12.76,7.62-12.76l-3.08-188.66c.9-.3,1.78-.62,2.64-.95,19.47-7.45,31.92-26.63,31.89-47.47ZM290.8,403.62c0,.81-.65,1.46-1.46,1.46s-1.46-.65-1.46-1.46v-14.75c0-.81.65-1.46,1.46-1.46s1.46.65,1.46,1.46v14.75Z"/>
  </g>
</svg>