<?xml version="1.0" encoding="UTF-8"?>
<svg id="Capa_1" data-name="Capa 1" xmlns="http://www.w3.org/2000/svg" viewBox="0 0 500 500">
  <defs>
    <style>
      .cls-1 {
        fill: #1d1d1b;
      }

      .cls-2 {
        fill: #fff;
      }
    </style>
  </defs>
  <path class="cls-1" d="M250.22,444.22c113.38,0,205.31-91.34,205.31-204S363.6,36.23,250.22,36.23,44.91,127.57,44.91,240.23s91.93,204,205.31,204" fill="none"/>
  <g>
    <path class="cls-2" d="M250.45,239.6c23.24-.78,41.8-19.21,42.06-42.32v-19.73h25.57v21.94c-.52,35.57-31.41,63.74-67.63,64.52h0c-36.87-.26-68.02-28.56-68.54-64.52v-39.33c0-4.02,2.6-6.62,6.49-6.62h103.98v24.01h-81.52c-2.08,0-3.38,1.3-3.38,3.38v15.97c.26,23.37,19.08,42.45,42.97,42.71h0Z"/>
    <g>
      <g>
        <rect class="cls-2" x="224.65" y="308.76" width="7.19" height="37.61"/>
        <path class="cls-2" d="M171.27,346.37v-53.47h18.35c16.69,0,25.63,11.8,25.63,26.74s-9.31,26.74-25.72,26.74h-18.25ZM188.23,340.01c12.91,0,19.82-6.73,19.82-20.37s-7.38-20.37-19.54-20.37h-10.05v40.75h9.77Z"/>
        <path class="cls-2" d="M223.63,296.22c0-2.58,2.03-4.61,4.61-4.61s4.61,2.03,4.61,4.61-2.03,4.61-4.61,4.61-4.61-2.12-4.61-4.61Z"/>
        <rect class="cls-2" x="151.63" y="308.76" width="7.19" height="37.61"/>
        <path class="cls-2" d="M97.98,346.37v-53.47h18.35c16.69,0,25.63,11.8,25.63,26.74s-9.31,26.74-25.72,26.74h-18.25ZM114.94,340.01c12.91,0,19.82-6.73,19.82-20.37s-7.38-20.37-19.54-20.37h-10.05v40.75h9.77Z"/>
        <path class="cls-2" d="M150.62,296.22c0-2.58,2.03-4.61,4.61-4.61s4.61,2.03,4.61,4.61-2.03,4.61-4.61,4.61-4.61-2.12-4.61-4.61Z"/>
      </g>
      <g>
        <path class="cls-2" d="M302.73,307.65c-12.08,0-18.71,6.91-18.71,19.36s6.64,19.36,18.71,19.36,18.71-6.91,18.71-19.36c-.09-12.54-6.73-19.36-18.71-19.36ZM302.73,341.95c-9.59,0-14.29-4.89-14.29-15.03s4.7-15.03,14.29-15.03,14.29,4.89,14.29,15.03-4.7,15.03-14.29,15.03Z"/>
        <path class="cls-2" d="M343.85,307.65c-12.08,0-18.71,6.91-18.71,19.36s6.64,19.36,18.71,19.36,18.71-6.91,18.71-19.36c-.09-12.54-6.73-19.36-18.71-19.36ZM343.85,341.95c-9.59,0-14.29-4.89-14.29-15.03s4.7-15.03,14.29-15.03,14.29,4.89,14.29,15.03-4.7,15.03-14.29,15.03Z"/>
        <polygon class="cls-2" points="256.91 295.94 284.94 295.94 284.94 291.79 252.4 291.79 252.4 346.37 256.91 346.37 256.91 322.13 280.15 322.13 280.15 317.88 256.91 317.88 256.91 295.94"/>
        <path class="cls-2" d="M397.78,292.53v20.56c-3.04-3.6-7.65-5.53-13.74-5.53-11.52,0-17.88,6.91-17.88,19.45s6.36,19.45,17.88,19.45c5.99,0,10.6-1.94,13.64-5.44l.37,4.79h3.96v-54.21l-4.24.92ZM384.14,341.95c-9.03,0-13.46-4.89-13.46-15.03s4.43-15.03,13.46-15.03,13.46,4.89,13.46,15.03-4.43,15.03-13.46,15.03Z"/>
      </g>
    </g>
  </g>
</svg>